<svg width="124" height="125" viewBox="0 0 124 125" fill="none" xmlns="http://www.w3.org/2000/svg">
<path d="M113.833 86.1496V38.8485C113.833 34.9174 111.739 31.2841 108.336 29.3144L67.5198 5.68373C64.1054 3.70699 59.8946 3.70699 56.4803 5.68373L15.6636 29.3144C12.2615 31.2841 10.1667 34.9174 10.1667 38.8485V86.1496C10.1667 90.0807 12.2615 93.714 15.6636 95.6837L56.4803 119.314C59.8946 121.291 64.1054 121.291 67.5198 119.314L108.336 95.6837C111.739 93.714 113.833 90.0807 113.833 86.1496Z" fill="#1B1B1B" stroke="white" stroke-width="5.5"/>
<path d="M113.833 86.1515V38.8505C113.833 34.9193 111.739 31.286 108.336 29.3164L67.5197 5.68568C64.1054 3.70894 59.8946 3.70894 56.4802 5.68568L15.6635 29.3164C12.2614 31.286 10.1666 34.9193 10.1666 38.8505V86.1515C10.1666 90.0827 12.2614 93.716 15.6635 95.6856L56.4802 119.316C59.8946 121.293 64.1053 121.293 67.5197 119.316L108.336 95.6856C111.739 93.716 113.833 90.0827 113.833 86.1515Z" fill="#1B1B1B" stroke="white" stroke-width="5.5"/>
<path fill-rule="evenodd" clip-rule="evenodd" d="M58.9283 19.1778C60.8322 18.0918 63.168 18.0918 65.072 19.1778L93.2112 35.2281C94.6015 36.0212 94.6015 38.0255 93.2112 38.8185L65.072 54.8689C63.1681 55.9548 60.8322 55.9549 58.9283 54.8689L30.7891 38.8185C29.3988 38.0255 29.3988 36.0212 30.7891 35.2281L58.9283 19.1778Z" fill="white"/>
</svg>
